<?xml version="1.0" encoding="UTF-8" standalone="no"?>
<!-- Generator: Adobe Illustrator 16.0.0, SVG Export Plug-In . SVG Version: 6.00 Build 0)  -->

<svg
   xmlns:dc="http://purl.org/dc/elements/1.1/"
   xmlns:cc="http://creativecommons.org/ns#"
   xmlns:rdf="http://www.w3.org/1999/02/22-rdf-syntax-ns#"
   xmlns:svg="http://www.w3.org/2000/svg"
   xmlns="http://www.w3.org/2000/svg"
   xmlns:xlink="http://www.w3.org/1999/xlink"
   xmlns:sodipodi="http://sodipodi.sourceforge.net/DTD/sodipodi-0.dtd"
   xmlns:inkscape="http://www.inkscape.org/namespaces/inkscape"
   version="1.1"
   id="Capa_1"
   x="0px"
   y="0px"
   width="113.7643"
   height="50.705051"
   viewBox="0 0 113.7643 50.70505"
   xml:space="preserve"
   sodipodi:docname="logo-raw-english.svg"
   inkscape:version="0.92.3 (2405546, 2018-03-11)"
   inkscape:export-filename="C:\Users\Vini\Downloads\TheLeanProgrammer.github.io\images\logo\logo-raw-english.png"
   inkscape:export-xdpi="699"
   inkscape:export-ydpi="699"><metadata
     id="metadata45"><rdf:RDF><cc:Work
         rdf:about=""><dc:format>image/svg+xml</dc:format><dc:type
           rdf:resource="http://purl.org/dc/dcmitype/StillImage" /><dc:title></dc:title></cc:Work></rdf:RDF></metadata><defs
     id="defs43"><linearGradient
       inkscape:collect="always"
       id="linearGradient1292"><stop
         style="stop-color:#c165dd;stop-opacity:1"
         offset="0"
         id="stop1288" /><stop
         style="stop-color:#5c27fe;stop-opacity:1"
         offset="1"
         id="stop1290" /></linearGradient><linearGradient
       inkscape:collect="always"
       xlink:href="#linearGradient1292"
       id="linearGradient1294"
       x1="-7.1403956e-005"
       y1="12.479406"
       x2="31.012802"
       y2="12.479406"
       gradientUnits="userSpaceOnUse" /><linearGradient
       inkscape:collect="always"
       xlink:href="#linearGradient1292"
       id="linearGradient1310"
       x1="-187.82756"
       y1="123.54064"
       x2="-17.379908"
       y2="123.54064"
       gradientUnits="userSpaceOnUse"
       gradientTransform="matrix(0.66744422,0,0,0.66744422,-143.45331,65.104352)" /><linearGradient
       inkscape:collect="always"
       xlink:href="#linearGradient1292"
       id="linearGradient1355"
       gradientUnits="userSpaceOnUse"
       x1="-7.1403956e-005"
       y1="12.479406"
       x2="31.012802"
       y2="12.479406" /><linearGradient
       inkscape:collect="always"
       xlink:href="#linearGradient1292"
       id="linearGradient1357"
       gradientUnits="userSpaceOnUse"
       x1="-7.1403956e-005"
       y1="12.479406"
       x2="31.012802"
       y2="12.479406" /><linearGradient
       inkscape:collect="always"
       xlink:href="#linearGradient1292"
       id="linearGradient1359"
       gradientUnits="userSpaceOnUse"
       gradientTransform="matrix(0.66744422,0,0,0.66744422,-143.45331,65.104352)"
       x1="-187.82756"
       y1="123.54064"
       x2="-17.379908"
       y2="123.54064" /><linearGradient
       inkscape:collect="always"
       xlink:href="#linearGradient1292"
       id="linearGradient1361"
       gradientUnits="userSpaceOnUse"
       gradientTransform="matrix(0.66744422,0,0,0.66744422,-143.45331,65.104352)"
       x1="-187.82756"
       y1="123.54064"
       x2="-17.379908"
       y2="123.54064" /><linearGradient
       inkscape:collect="always"
       xlink:href="#linearGradient1292"
       id="linearGradient1363"
       gradientUnits="userSpaceOnUse"
       gradientTransform="matrix(0.66744422,0,0,0.66744422,-143.45331,65.104352)"
       x1="-187.82756"
       y1="123.54064"
       x2="-17.379908"
       y2="123.54064" /><linearGradient
       inkscape:collect="always"
       xlink:href="#linearGradient1292"
       id="linearGradient1365"
       gradientUnits="userSpaceOnUse"
       gradientTransform="matrix(0.66744422,0,0,0.66744422,-143.45331,65.104352)"
       x1="-187.82756"
       y1="123.54064"
       x2="-17.379908"
       y2="123.54064" /><linearGradient
       inkscape:collect="always"
       xlink:href="#linearGradient1292"
       id="linearGradient1367"
       gradientUnits="userSpaceOnUse"
       gradientTransform="matrix(0.66744422,0,0,0.66744422,-143.45331,65.104352)"
       x1="-187.82756"
       y1="123.54064"
       x2="-17.379908"
       y2="123.54064" /><linearGradient
       inkscape:collect="always"
       xlink:href="#linearGradient1292"
       id="linearGradient1369"
       gradientUnits="userSpaceOnUse"
       gradientTransform="matrix(0.66744422,0,0,0.66744422,-143.45331,65.104352)"
       x1="-187.82756"
       y1="123.54064"
       x2="-17.379908"
       y2="123.54064" /><linearGradient
       inkscape:collect="always"
       xlink:href="#linearGradient1292"
       id="linearGradient1371"
       gradientUnits="userSpaceOnUse"
       gradientTransform="matrix(0.66744422,0,0,0.66744422,-143.45331,65.104352)"
       x1="-187.82756"
       y1="123.54064"
       x2="-17.379908"
       y2="123.54064" /><linearGradient
       inkscape:collect="always"
       xlink:href="#linearGradient1292"
       id="linearGradient1373"
       gradientUnits="userSpaceOnUse"
       gradientTransform="matrix(0.66744422,0,0,0.66744422,-143.45331,65.104352)"
       x1="-187.82756"
       y1="123.54064"
       x2="-17.379908"
       y2="123.54064" /><linearGradient
       inkscape:collect="always"
       xlink:href="#linearGradient1292"
       id="linearGradient1375"
       gradientUnits="userSpaceOnUse"
       gradientTransform="matrix(0.66744422,0,0,0.66744422,-143.45331,65.104352)"
       x1="-187.82756"
       y1="123.54064"
       x2="-17.379908"
       y2="123.54064" /><linearGradient
       inkscape:collect="always"
       xlink:href="#linearGradient1292"
       id="linearGradient1377"
       gradientUnits="userSpaceOnUse"
       gradientTransform="matrix(0.66744422,0,0,0.66744422,-143.45331,65.104352)"
       x1="-187.82756"
       y1="123.54064"
       x2="-17.379908"
       y2="123.54064" /><linearGradient
       inkscape:collect="always"
       xlink:href="#linearGradient1292"
       id="linearGradient1379"
       gradientUnits="userSpaceOnUse"
       gradientTransform="matrix(0.66744422,0,0,0.66744422,-143.45331,65.104352)"
       x1="-187.82756"
       y1="123.54064"
       x2="-17.379908"
       y2="123.54064" /><linearGradient
       inkscape:collect="always"
       xlink:href="#linearGradient1292"
       id="linearGradient1381"
       gradientUnits="userSpaceOnUse"
       gradientTransform="matrix(0.66744422,0,0,0.66744422,-143.45331,65.104352)"
       x1="-187.82756"
       y1="123.54064"
       x2="-17.379908"
       y2="123.54064" /><linearGradient
       inkscape:collect="always"
       xlink:href="#linearGradient1292"
       id="linearGradient1383"
       gradientUnits="userSpaceOnUse"
       gradientTransform="matrix(0.66744422,0,0,0.66744422,-143.45331,65.104352)"
       x1="-187.82756"
       y1="123.54064"
       x2="-17.379908"
       y2="123.54064" /><linearGradient
       inkscape:collect="always"
       xlink:href="#linearGradient1292"
       id="linearGradient1385"
       gradientUnits="userSpaceOnUse"
       gradientTransform="matrix(0.66744422,0,0,0.66744422,-143.45331,65.104352)"
       x1="-187.82756"
       y1="123.54064"
       x2="-17.379908"
       y2="123.54064" /><linearGradient
       inkscape:collect="always"
       xlink:href="#linearGradient1292"
       id="linearGradient1387"
       gradientUnits="userSpaceOnUse"
       gradientTransform="matrix(0.66744422,0,0,0.66744422,-143.45331,65.104352)"
       x1="-187.82756"
       y1="123.54064"
       x2="-17.379908"
       y2="123.54064" /><linearGradient
       inkscape:collect="always"
       xlink:href="#linearGradient1292"
       id="linearGradient1389"
       gradientUnits="userSpaceOnUse"
       gradientTransform="matrix(0.66744422,0,0,0.66744422,-143.45331,65.104352)"
       x1="-187.82756"
       y1="123.54064"
       x2="-17.379908"
       y2="123.54064" /><linearGradient
       inkscape:collect="always"
       xlink:href="#linearGradient1292"
       id="linearGradient1391"
       gradientUnits="userSpaceOnUse"
       gradientTransform="matrix(0.66744422,0,0,0.66744422,-143.45331,65.104352)"
       x1="-187.82756"
       y1="123.54064"
       x2="-17.379908"
       y2="123.54064" /><linearGradient
       inkscape:collect="always"
       xlink:href="#linearGradient1292"
       id="linearGradient930"
       x1="-368.05289"
       y1="36.43679"
       x2="-331.99991"
       y2="36.43679"
       gradientUnits="userSpaceOnUse" /><linearGradient
       inkscape:collect="always"
       xlink:href="#linearGradient1292"
       id="linearGradient932"
       gradientUnits="userSpaceOnUse"
       x1="-368.05289"
       y1="36.43679"
       x2="-331.99991"
       y2="36.43679" /></defs><sodipodi:namedview
     pagecolor="#ffffff"
     bordercolor="#666666"
     borderopacity="1"
     objecttolerance="10"
     gridtolerance="10"
     guidetolerance="10"
     inkscape:pageopacity="0"
     inkscape:pageshadow="2"
     inkscape:window-width="1920"
     inkscape:window-height="1027"
     id="namedview41"
     showgrid="false"
     fit-margin-top="0"
     fit-margin-left="0"
     fit-margin-right="0"
     fit-margin-bottom="0"
     inkscape:zoom="7.6097121"
     inkscape:cx="52.108727"
     inkscape:cy="5.4076579"
     inkscape:window-x="-8"
     inkscape:window-y="-8"
     inkscape:window-maximized="1"
     inkscape:current-layer="Capa_1"
     showguides="true"
     inkscape:guide-bbox="true" /><g
     id="g10"
     transform="translate(439.79353,-88.648987)" /><g
     id="g12"
     transform="translate(439.79353,-88.648987)" /><g
     id="g14"
     transform="translate(439.79353,-88.648987)" /><g
     id="g16"
     transform="translate(439.79353,-88.648987)" /><g
     id="g18"
     transform="translate(439.79353,-88.648987)" /><g
     id="g20"
     transform="translate(439.79353,-88.648987)" /><g
     id="g22"
     transform="translate(439.79353,-88.648987)" /><g
     id="g24"
     transform="translate(439.79353,-88.648987)" /><g
     id="g26"
     transform="translate(439.79353,-88.648987)" /><g
     id="g28"
     transform="translate(439.79353,-88.648987)" /><g
     id="g30"
     transform="translate(439.79353,-88.648987)" /><g
     id="g32"
     transform="translate(439.79353,-88.648987)" /><g
     id="g34"
     transform="translate(439.79353,-88.648987)" /><g
     id="g36"
     transform="translate(439.79353,-88.648987)" /><g
     id="g38"
     transform="translate(439.79353,-88.648987)" /><g
     id="g8"
     transform="translate(41.345622,-1.4384882)"
     style="fill:url(#linearGradient1294);fill-opacity:1"
     inkscape:export-filename="C:\Users\Michael\Desktop\Programmer-logo.png"
     inkscape:export-xdpi="699.32635"
     inkscape:export-ydpi="699.32635"><g
       id="g6"
       style="fill:url(#linearGradient1357);fill-opacity:1"><path
         d="M 30.935,15.952 C 27.242,-0.025 13.748,2.728 13.748,2.728 c 0,0 -0.160448,-0.5038528 3.041282,-1.0850614 C 12.693282,0.60293857 7.975,3.869 7.975,3.869 c 0,0 -0.9715583,0.5914968 -0.9715583,-0.9855032 C 6.192411,4.067785 7.035,5.21 7.035,5.21 7.035,5.21 5.0350244,5.1794417 3.9687913,4.3819142 4.8493432,5.9477055 5.799,5.666 6.565,5.95 -6.93,6.889 4.7481165,29.425742 4.8151165,27.948742 2.8011165,19.288742 7.438,12.06 7.438,12.06 c 0,0 1.6967489,5.08173 10.177484,4.582319 C 12.186172,15.332172 12.014,13.806 12.014,13.806 c 0,0 5.595,0.47 10.999,-2.081 2.282,0.1 4.162,5.019 4.699,11.145 2.535,-1.829 1.88,-6.916 1.88,-6.916 0,0 1.813,1.476 1.343,-0.002 z"
         id="path2"
         inkscape:connector-curvature="0"
         style="fill:url(#linearGradient1355);fill-opacity:1"
         sodipodi:nodetypes="cccccccccccccccc" /></g></g><g
     aria-label="The Lean Programmer"
     style="font-style:normal;font-variant:normal;font-weight:normal;font-stretch:normal;font-size:12.45895767px;line-height:1.25;font-family:'Poiret One';-inkscape-font-specification:'Poiret One';font-variant-ligatures:normal;font-variant-caps:normal;font-variant-numeric:normal;font-feature-settings:normal;text-align:start;letter-spacing:0px;word-spacing:0px;writing-mode:lr-tb;text-anchor:start;fill:url(#linearGradient1310);fill-opacity:1;stroke:none;stroke-width:0.66744423"
     id="text1103"
     transform="translate(268.81775,-102.82364)"><path
       d="m -264.12072,141.59301 v 0.36131 h -2.13048 v 8.98291 h -0.41115 v -8.98291 h -2.1554 v -0.36131 z"
       style="font-style:normal;font-variant:normal;font-weight:normal;font-stretch:normal;font-family:'Poiret One';-inkscape-font-specification:'Poiret One';fill:url(#linearGradient1359);fill-opacity:1;stroke-width:0.66744423"
       id="path1312"
       inkscape:connector-curvature="0" /><path
       d="m -262.71325,150.93723 h -0.39868 v -9.33176 h 0.39868 v 4.80915 q 0.62295,-1.22097 2.1554,-1.22097 1.04656,0 1.75672,0.72262 0.72262,0.72261 0.72262,1.75671 v 3.26425 h -0.39869 v -3.26425 q 0,-0.87213 -0.61049,-1.49508 -0.61049,-0.6354 -1.47016,-0.6354 -0.85966,0 -1.50753,0.6354 -0.64787,0.63541 -0.64787,1.49508 z"
       style="font-style:normal;font-variant:normal;font-weight:normal;font-stretch:normal;font-family:'Poiret One';-inkscape-font-specification:'Poiret One';fill:url(#linearGradient1361);fill-opacity:1;stroke-width:0.66744423"
       id="path1314"
       inkscape:connector-curvature="0" /><path
       d="m -253.90885,151.08673 h -0.11213 q -1.1836,0 -2.06819,-0.88458 -0.87213,-0.89705 -0.87213,-2.08065 0,-1.1836 0.87213,-2.04327 0.87213,-0.87213 2.1554,-0.87213 1.28327,0 2.20524,1.02164 l -3.91212,3.86228 q 0.80984,0.64786 1.55737,0.64786 0.74754,0 1.33311,-0.33639 0.59803,-0.34885 0.98426,-0.92196 v 0.6354 q -0.88459,0.9718 -2.14294,0.9718 z m -0.13705,-5.53177 q -0.98426,0 -1.75671,0.77245 -0.76,0.76 -0.76,1.75671 0,0.99672 0.66033,1.74426 l 3.62555,-3.60064 q -0.77245,-0.67278 -1.76917,-0.67278 z"
       style="font-style:normal;font-variant:normal;font-weight:normal;font-stretch:normal;font-family:'Poiret One';-inkscape-font-specification:'Poiret One';fill:url(#linearGradient1363);fill-opacity:1;stroke-width:0.66744423"
       id="path1316"
       inkscape:connector-curvature="0" /><path
       d="m -245.60184,141.59301 v 8.98291 h 2.89048 v 0.36131 h -3.30163 v -9.34422 z"
       style="font-style:normal;font-variant:normal;font-weight:normal;font-stretch:normal;font-family:'Poiret One';-inkscape-font-specification:'Poiret One';fill:url(#linearGradient1365);fill-opacity:1;stroke-width:0.66744423"
       id="path1318"
       inkscape:connector-curvature="0" /><path
       d="m -238.91917,151.08673 h -0.11213 q -1.1836,0 -2.06819,-0.88458 -0.87212,-0.89705 -0.87212,-2.08065 0,-1.1836 0.87212,-2.04327 0.87213,-0.87213 2.1554,-0.87213 1.28328,0 2.20524,1.02164 l -3.91211,3.86228 q 0.80983,0.64786 1.55737,0.64786 0.74753,0 1.33311,-0.33639 0.59803,-0.34885 0.98425,-0.92196 v 0.6354 q -0.88458,0.9718 -2.14294,0.9718 z m -0.13705,-5.53177 q -0.98425,0 -1.75671,0.77245 -0.76,0.76 -0.76,1.75671 0,0.99672 0.66033,1.74426 l 3.62556,-3.60064 q -0.77246,-0.67278 -1.76918,-0.67278 z"
       style="font-style:normal;font-variant:normal;font-weight:normal;font-stretch:normal;font-family:'Poiret One';-inkscape-font-specification:'Poiret One';fill:url(#linearGradient1367);fill-opacity:1;stroke-width:0.66744423"
       id="path1320"
       inkscape:connector-curvature="0" /><path
       d="m -229.97188,145.33069 v 5.60654 h -0.39869 v -1.39541 q -0.34885,0.71016 -1.04655,1.12131 -0.6977,0.41114 -1.49508,0.41114 -1.22097,0 -2.0931,-0.85966 -0.87213,-0.87213 -0.87213,-2.08065 0,-1.20852 0.87213,-2.06819 0.87213,-0.87212 2.0931,-0.87212 0.79738,0 1.52,0.4236 0.73507,0.4236 1.02163,1.12131 v -1.40787 z m -5.50686,2.81573 q 0,1.04655 0.75999,1.81901 0.77246,0.75999 1.81901,0.75999 1.05901,0 1.80655,-0.75999 0.74754,-0.77246 0.74754,-1.81901 0,-1.05901 -0.76,-1.83147 -0.74753,-0.77245 -1.79409,-0.77245 -1.04655,0 -1.81901,0.78491 -0.75999,0.77246 -0.75999,1.81901 z"
       style="font-style:normal;font-variant:normal;font-weight:normal;font-stretch:normal;font-family:'Poiret One';-inkscape-font-specification:'Poiret One';fill:url(#linearGradient1369);fill-opacity:1;stroke-width:0.66744423"
       id="path1322"
       inkscape:connector-curvature="0" /><path
       d="m -228.08611,150.93723 h -0.39868 v -5.60654 h 0.39868 v 1.13377 q 0.63541,-1.27081 2.16786,-1.27081 1.04655,0 1.75672,0.72262 0.71016,0.72261 0.71016,1.75671 v 3.26425 h -0.39869 v -3.26425 q 0,-0.85967 -0.61049,-1.49508 -0.59803,-0.6354 -1.4577,-0.6354 -0.85967,0 -1.51999,0.6354 -0.64787,0.63541 -0.64787,1.49508 z"
       style="font-style:normal;font-variant:normal;font-weight:normal;font-stretch:normal;font-family:'Poiret One';-inkscape-font-specification:'Poiret One';fill:url(#linearGradient1371);fill-opacity:1;stroke-width:0.66744423"
       id="path1324"
       inkscape:connector-curvature="0" /><path
       d="m -217.43311,141.59301 h 0.41114 q 1.29573,0 2.20524,0.89704 0.9095,0.88459 0.9095,2.09311 0,1.20852 -0.94688,2.08064 -0.93442,0.87213 -2.06819,0.87213 h -0.0997 v 3.4013 h -0.41114 z m 0.41114,5.59407 h 0.0997 q 1.04656,0 1.81901,-0.77246 0.78492,-0.77245 0.78492,-1.83146 0,-1.05901 -0.79738,-1.84393 -0.78491,-0.78491 -1.80655,-0.78491 h -0.0997 z"
       style="font-style:normal;font-variant:normal;font-weight:normal;font-stretch:normal;font-family:'Poiret One';-inkscape-font-specification:'Poiret One';fill:url(#linearGradient1373);fill-opacity:1;stroke-width:0.66744423"
       id="path1326"
       inkscape:connector-curvature="0" /><path
       d="m -209.46405,146.09069 q -0.54819,-0.54819 -1.20852,-0.54819 -0.66032,0 -1.17114,0.49835 -0.49836,0.49836 -0.49836,1.15869 v 3.73769 h -0.39869 v -5.60654 h 0.39869 v 0.83475 q 0.22426,-0.4236 0.6977,-0.6977 0.47344,-0.27409 1.05901,-0.27409 0.58558,0 1.12131,0.39868 z"
       style="font-style:normal;font-variant:normal;font-weight:normal;font-stretch:normal;font-family:'Poiret One';-inkscape-font-specification:'Poiret One';fill:url(#linearGradient1375);fill-opacity:1;stroke-width:0.66744423"
       id="path1328"
       inkscape:connector-curvature="0" /><path
       d="m -205.8054,151.07427 q -1.19606,0 -2.05573,-0.88458 -0.85967,-0.89705 -0.85967,-2.08065 0,-1.1836 0.87213,-2.04327 0.87213,-0.87212 2.09311,-0.87212 1.23343,0 2.0931,0.87212 0.87213,0.85967 0.87213,2.05573 0,1.1836 -0.84721,2.06819 -0.84721,0.88458 -2.05573,0.88458 z m 2.61638,-2.92785 q 0,-1.05901 -0.76,-1.83147 -0.74753,-0.77245 -1.79409,-0.77245 -1.04655,0 -1.819,0.78491 -0.76,0.77246 -0.76,1.81901 0,1.04655 0.76,1.81901 0.77245,0.75999 1.819,0.75999 1.05902,0 1.80655,-0.75999 0.74754,-0.77246 0.74754,-1.81901 z"
       style="font-style:normal;font-variant:normal;font-weight:normal;font-stretch:normal;font-family:'Poiret One';-inkscape-font-specification:'Poiret One';fill:url(#linearGradient1377);fill-opacity:1;stroke-width:0.66744423"
       id="path1330"
       inkscape:connector-curvature="0" /><path
       d="m -196.38799,145.33069 h 0.39869 v 5.08326 q 0,1.44524 -0.79737,2.27999 -0.79738,0.83475 -2.09311,0.83475 -0.71016,0 -1.38294,-0.32393 -0.67279,-0.32394 -1.04656,-0.84721 v -0.57312 q 0.32394,0.59803 1.00918,0.99672 0.6977,0.39869 1.42032,0.39869 1.09639,0 1.79409,-0.74754 0.6977,-0.73508 0.6977,-2.01835 v -0.83475 q -0.33639,0.68524 -1.05901,1.09639 -0.72262,0.41114 -1.49507,0.41114 -1.22098,0 -2.09311,-0.85967 -0.87213,-0.87212 -0.87213,-2.08064 0,-1.20852 0.87213,-2.06819 0.87213,-0.87213 2.09311,-0.87213 0.80983,0 1.50753,0.41115 0.71016,0.39869 1.04655,1.10885 z m -5.12063,2.81573 q 0,1.05901 0.76,1.83147 0.77245,0.75999 1.81901,0.75999 1.05901,0 1.80654,-0.75999 0.74754,-0.77246 0.74754,-1.83147 0,-1.05901 -0.74754,-1.81901 -0.74753,-0.77245 -1.80654,-0.77245 -1.04656,0 -1.81901,0.77245 -0.76,0.76 -0.76,1.81901 z"
       style="font-style:normal;font-variant:normal;font-weight:normal;font-stretch:normal;font-family:'Poiret One';-inkscape-font-specification:'Poiret One';fill:url(#linearGradient1379);fill-opacity:1;stroke-width:0.66744423"
       id="path1332"
       inkscape:connector-curvature="0" /><path
       d="m -191.21363,146.09069 q -0.54819,-0.54819 -1.20851,-0.54819 -0.66033,0 -1.17115,0.49835 -0.49836,0.49836 -0.49836,1.15869 v 3.73769 h -0.39868 v -5.60654 h 0.39868 v 0.83475 q 0.22427,-0.4236 0.69771,-0.6977 0.47344,-0.27409 1.05901,-0.27409 0.58557,0 1.1213,0.39868 z"
       style="font-style:normal;font-variant:normal;font-weight:normal;font-stretch:normal;font-family:'Poiret One';-inkscape-font-specification:'Poiret One';fill:url(#linearGradient1381);fill-opacity:1;stroke-width:0.66744423"
       id="path1334"
       inkscape:connector-curvature="0" /><path
       d="m -184.56482,145.33069 v 5.60654 h -0.39869 v -1.39541 q -0.34885,0.71016 -1.04655,1.12131 -0.6977,0.41114 -1.49508,0.41114 -1.22098,0 -2.0931,-0.85966 -0.87213,-0.87213 -0.87213,-2.08065 0,-1.20852 0.87213,-2.06819 0.87212,-0.87212 2.0931,-0.87212 0.79738,0 1.52,0.4236 0.73507,0.4236 1.02163,1.12131 v -1.40787 z m -5.50686,2.81573 q 0,1.04655 0.75999,1.81901 0.77246,0.75999 1.81901,0.75999 1.05901,0 1.80655,-0.75999 0.74754,-0.77246 0.74754,-1.81901 0,-1.05901 -0.76,-1.83147 -0.74754,-0.77245 -1.79409,-0.77245 -1.04655,0 -1.81901,0.78491 -0.75999,0.77246 -0.75999,1.81901 z"
       style="font-style:normal;font-variant:normal;font-weight:normal;font-stretch:normal;font-family:'Poiret One';-inkscape-font-specification:'Poiret One';fill:url(#linearGradient1383);fill-opacity:1;stroke-width:0.66744423"
       id="path1336"
       inkscape:connector-curvature="0" /><path
       d="m -179.19054,146.5143 q 0.18689,-0.59803 0.71016,-0.95934 0.53574,-0.36131 1.29573,-0.36131 0.76,0 1.33311,0.54819 0.57311,0.54819 0.57311,1.48262 v 3.71277 h -0.39868 v -3.71277 q 0,-0.72262 -0.47344,-1.19606 -0.47344,-0.4859 -1.14623,-0.4859 -0.66032,0 -1.1836,0.49835 -0.51082,0.49836 -0.51082,1.15869 v 3.73769 h -0.39868 v -3.73769 q 0,-0.67279 -0.47344,-1.15869 -0.47344,-0.49835 -1.14623,-0.49835 -0.67278,0 -1.17114,0.49835 -0.49836,0.49836 -0.49836,1.15869 v 3.73769 h -0.39868 v -5.60654 h 0.39868 v 0.78492 q 0.24918,-0.37377 0.73508,-0.64787 0.49836,-0.27409 1.02164,-0.27409 0.53573,0 1.02163,0.37376 0.4859,0.36131 0.71016,0.94689 z"
       style="font-style:normal;font-variant:normal;font-weight:normal;font-stretch:normal;font-family:'Poiret One';-inkscape-font-specification:'Poiret One';fill:url(#linearGradient1385);fill-opacity:1;stroke-width:0.66744423"
       id="path1338"
       inkscape:connector-curvature="0" /><path
       d="m -169.89498,146.5143 q 0.18688,-0.59803 0.71016,-0.95934 0.53573,-0.36131 1.29573,-0.36131 0.75999,0 1.33311,0.54819 0.57311,0.54819 0.57311,1.48262 v 3.71277 h -0.39869 v -3.71277 q 0,-0.72262 -0.47344,-1.19606 -0.47344,-0.4859 -1.14622,-0.4859 -0.66033,0 -1.1836,0.49835 -0.51082,0.49836 -0.51082,1.15869 v 3.73769 h -0.39869 v -3.73769 q 0,-0.67279 -0.47344,-1.15869 -0.47344,-0.49835 -1.14622,-0.49835 -0.67279,0 -1.17114,0.49835 -0.49836,0.49836 -0.49836,1.15869 v 3.73769 h -0.39869 v -5.60654 h 0.39869 v 0.78492 q 0.24918,-0.37377 0.73508,-0.64787 0.49835,-0.27409 1.02163,-0.27409 0.53574,0 1.02164,0.37376 0.48589,0.36131 0.71016,0.94689 z"
       style="font-style:normal;font-variant:normal;font-weight:normal;font-stretch:normal;font-family:'Poiret One';-inkscape-font-specification:'Poiret One';fill:url(#linearGradient1387);fill-opacity:1;stroke-width:0.66744423"
       id="path1340"
       inkscape:connector-curvature="0" /><path
       d="m -161.68337,151.08673 h -0.11213 q -1.1836,0 -2.06818,-0.88458 -0.87213,-0.89705 -0.87213,-2.08065 0,-1.1836 0.87213,-2.04327 0.87212,-0.87213 2.1554,-0.87213 1.28327,0 2.20523,1.02164 l -3.91211,3.86228 q 0.80983,0.64786 1.55737,0.64786 0.74754,0 1.33311,-0.33639 0.59803,-0.34885 0.98425,-0.92196 v 0.6354 q -0.88458,0.9718 -2.14294,0.9718 z m -0.13704,-5.53177 q -0.98426,0 -1.75672,0.77245 -0.75999,0.76 -0.75999,1.75671 0,0.99672 0.66032,1.74426 l 3.62556,-3.60064 q -0.77246,-0.67278 -1.76917,-0.67278 z"
       style="font-style:normal;font-variant:normal;font-weight:normal;font-stretch:normal;font-family:'Poiret One';-inkscape-font-specification:'Poiret One';fill:url(#linearGradient1389);fill-opacity:1;stroke-width:0.66744423"
       id="path1342"
       inkscape:connector-curvature="0" /><path
       d="m -155.05345,146.09069 q -0.54819,-0.54819 -1.20852,-0.54819 -0.66032,0 -1.17114,0.49835 -0.49836,0.49836 -0.49836,1.15869 v 3.73769 h -0.39868 v -5.60654 h 0.39868 v 0.83475 q 0.22427,-0.4236 0.69771,-0.6977 0.47344,-0.27409 1.05901,-0.27409 0.58557,0 1.1213,0.39868 z"
       style="font-style:normal;font-variant:normal;font-weight:normal;font-stretch:normal;font-family:'Poiret One';-inkscape-font-specification:'Poiret One';fill:url(#linearGradient1391);fill-opacity:1;stroke-width:0.66744423"
       id="path1344"
       inkscape:connector-curvature="0" /></g><g
     id="g856"
     transform="translate(365.22997,-122.86888)" /><g
     id="g858"
     transform="translate(365.22997,-122.86888)" /><g
     id="g860"
     transform="translate(365.22997,-122.86888)" /><g
     id="g862"
     transform="translate(365.22997,-122.86888)" /><g
     id="g864"
     transform="translate(365.22997,-122.86888)" /><g
     id="g866"
     transform="translate(365.22997,-122.86888)" /><g
     id="g868"
     transform="translate(365.22997,-122.86888)" /><g
     id="g870"
     transform="translate(365.22997,-122.86888)" /><g
     id="g872"
     transform="translate(365.22997,-122.86888)" /><g
     id="g874"
     transform="translate(365.22997,-122.86888)" /><g
     id="g876"
     transform="translate(365.22997,-122.86888)" /><g
     id="g878"
     transform="translate(365.22997,-122.86888)" /><g
     id="g880"
     transform="translate(365.22997,-122.86888)" /><g
     id="g882"
     transform="translate(365.22997,-122.86888)" /><g
     id="g884"
     transform="translate(365.22997,-122.86888)" /><flowRoot
     xml:space="preserve"
     id="flowRoot1347"
     style="font-style:normal;font-variant:normal;font-weight:500;font-stretch:normal;font-size:18.66666603px;line-height:1.25;font-family:Montserrat;-inkscape-font-specification:'Montserrat, Medium';font-variant-ligatures:normal;font-variant-caps:normal;font-variant-numeric:normal;font-feature-settings:normal;text-align:start;letter-spacing:0px;word-spacing:0px;writing-mode:lr-tb;text-anchor:start;fill:#000000;fill-opacity:1;stroke:none"
     transform="translate(439.79353,-88.648987)"><flowRegion
       id="flowRegion1349"><rect
         id="rect1351"
         width="784.26099"
         height="157.69322"
         x="-306.97614"
         y="-141.39825" /></flowRegion><flowPara
       id="flowPara1353" /></flowRoot><g
     id="g902"
     transform="matrix(0.54595343,0,0,0.54595343,247.98028,9.6020628)"
     style="fill:url(#linearGradient930);fill-opacity:1"><path
       style="fill:url(#linearGradient932);fill-opacity:1;stroke-width:0.33438462"
       d="m -351.59621,32.344497 c -0.7712,0.02028 -1.69924,0.450015 -2.91411,1.306189 -5.87845,4.142782 -7.33466,4.458974 -11.26132,2.445841 l -2.28126,-1.169693 1.50473,1.313374 c 3.45503,3.016276 7.63973,4.66814 10.68202,4.215728 2.24103,-0.270333 4.11503,-2.551682 5.83475,-2.80439 0.005,-1.259415 0.004,-1.648687 0.005,-2.309997 0.001,0.66131 -1.4e-4,1.050582 0.005,2.309997 1.71972,0.252708 3.59372,2.534057 5.83475,2.80439 3.04229,0.452412 7.22699,-1.199452 10.68202,-4.215728 l 1.50473,-1.313374 -2.28126,1.169693 c -3.92666,2.013133 -5.38287,1.696941 -11.26132,-2.445841 -2.1564,-1.519703 -3.40943,-1.693955 -4.48415,-0.623705 -0.46924,-0.46729 -0.97236,-0.698204 -1.57004,-0.682484 z"
       id="path904"
       inkscape:connector-curvature="0" /></g></svg>