<?xml version="1.0" encoding="utf-8"?>
<!-- Generator: Adobe Illustrator 16.0.0, SVG Export Plug-In . SVG Version: 6.00 Build 0)  -->
<!DOCTYPE svg PUBLIC "-//W3C//DTD SVG 1.1//EN" "http://www.w3.org/Graphics/SVG/1.1/DTD/svg11.dtd">
<svg version="1.1" id="Layer_1" xmlns="http://www.w3.org/2000/svg" xmlns:xlink="http://www.w3.org/1999/xlink" x="0px" y="0px"
	 width="158.408px" height="121.279px" viewBox="0 0 158.408 121.279" enable-background="new 0 0 158.408 121.279"
	 xml:space="preserve">
<path d="M139.04,116.279c0,2.75-2.25,5-5,5H24.368c-2.75,0-5-2.25-5-5v-2.667c0-2.75,2.25-5,5-5H134.04c2.75,0,5,2.25,5,5V116.279z"
	/>
<path d="M154.303,0h-30.523c-2.75,0-7.25,0-10,0H44.631c-2.75,0-7.25,0-10,0H4.105c-2.75,0-4.554,2.205-4.008,4.9l18.278,90.282
	c0.546,2.695,3.242,4.9,5.992,4.9H134.04c2.75,0,5.446-2.205,5.992-4.9L158.311,4.9C158.856,2.205,157.053,0,154.303,0z
	 M75.253,88.667L42.989,56.405l7.212-7.213l15.155-15.154c2.121,2.77,5.043,4.888,8.432,5.994L57.413,56.404L73.14,72.131
	l2.113,2.112V88.667z M67.171,23.45c0-6.646,5.387-12.034,12.034-12.034c6.646,0,12.034,5.388,12.034,12.034
	s-5.388,12.034-12.034,12.034C72.558,35.484,67.171,30.097,67.171,23.45z M108.208,63.617l-25.051,25.05V74.243l17.838-17.838
	L85.269,40.679l-0.646-0.646c3.389-1.106,6.311-3.225,8.432-5.993l22.365,22.366L108.208,63.617z"/>
</svg>
